<svg width="130" height="105" viewBox="0 0 130 105" fill="white" xmlns="http://www.w3.org/2000/svg">
    <path fill-rule="evenodd" clip-rule="evenodd" d="M41.6639 6.91648C40.8823 7.47128 39.6609 8.44633 39.31 8.79568C38.2248 9.87584 37.788 10.6963 37.0512 13.0381C36.4391 14.9838 36.2193 15.3995 35.6693 15.6526C35.1946 15.871 34.3427 16.041 33.7703 16.0317C32.7153 16.0145 30.8068 16.9309 28.8205 18.4083C26.6951 19.9891 22.8316 23.7925 21.3763 25.7366C20.6528 26.703 20.1462 27.7052 19.7286 28.9963C19.3315 30.2238 19.274 30.7451 19.4348 31.6583L19.5521 32.3243L18.6356 32.8366C18.1315 33.1184 16.9796 33.755 16.0757 34.2512C13.849 35.4737 13.242 35.9344 11.862 37.4495C9.60098 39.9319 7.66014 43.049 5.79481 47.1939C3.88698 51.4333 3.49975 54.1424 4.3786 57.1012C4.51332 57.5548 4.68997 58.1515 4.77121 58.4273C5.03061 59.3083 4.96219 59.5527 4.22676 60.3723C3.40416 61.289 2.8648 62.1055 2.55988 62.8957C2.31035 63.5424 2.282 63.981 2.45298 64.5508C2.56299 64.9175 2.44849 65.2842 1.83097 66.543C1.40453 67.4123 0.825493 69.3367 0.526949 70.8769C0.211844 72.5027 0.293155 74.0478 0.808204 76.2201C1.15682 77.6904 1.67289 78.8341 2.53469 80.0464C2.98721 80.6829 3.36602 81.317 3.69188 81.9836C4.31928 83.2668 4.49461 83.8729 5.05236 86.6859C5.71902 90.0484 6.19554 91.1173 7.6973 92.6194C8.26153 93.1837 9.03133 93.85 11.5671 95.9687C12.5808 96.8156 13.9922 98.0386 14.7037 98.6865C15.4151 99.3344 16.3528 100.137 16.7875 100.47C18.6499 101.898 20.7771 102.905 23.822 103.802C28.2601 105.11 31.1098 105.191 33.3858 104.075C34.7682 103.397 35.6826 102.454 36.0947 101.281C36.3604 100.524 36.5488 99.1535 36.5511 97.96C36.5539 96.4982 36.4446 96.2555 33.3775 90.9104C31.7317 88.0422 31.1373 86.8391 31.1225 86.3461C31.1179 86.1926 31.1422 85.7375 31.1764 85.3348C31.2614 84.3361 31.205 83.651 31.0032 83.232C30.7997 82.8096 30.8018 82.1844 31.0095 81.3732C31.2654 80.3734 31.5641 80.0455 33.597 78.5326C35.9212 76.803 36.4476 76.2366 37.3918 74.4491C38.6254 72.1137 39.0972 70.4201 39.0864 68.3661C39.0839 67.8883 39.102 67.4876 39.1266 67.4756C39.1512 67.4635 39.4562 67.7001 39.8043 68.0013C41.4264 69.4048 43.2935 70.1023 44.8851 69.8993C46.3578 69.7115 49.1228 68.8884 50.7094 68.1653C51.1329 67.9724 51.8638 67.5907 52.3337 67.3171L53.188 66.8198L53.4429 67.0099C53.762 67.248 56.7393 68.312 58.8573 68.9449C61.3382 69.6863 62.7443 70.0122 63.4004 69.9979C64.1705 69.981 65.8194 69.6687 67.5917 69.2039C71.6374 68.1429 73.1141 67.3363 75.7463 64.7495C76.3385 64.1675 76.8624 63.7087 76.9107 63.73C76.9589 63.7512 77.346 64.1088 77.7708 64.5246C79.498 66.215 81.907 67.6852 84.3479 68.5381C85.8647 69.0681 88.2812 69.4317 90.5737 69.4747C91.9606 69.5007 92.6447 69.4431 93.8308 69.2004C94.3404 69.0961 94.7779 69.0179 94.8032 69.0266C94.8284 69.0354 94.8717 69.3685 94.8993 69.767C94.9474 70.46 94.9715 70.5362 95.4529 71.5204C95.8869 72.4078 96.0331 72.6353 96.5152 73.1735C98.1619 75.0115 100.403 76.6468 101.896 77.0996C102.655 77.3297 103.226 77.3615 104.26 77.231C105.907 77.0232 106.23 77.1221 106.637 77.9583C107.325 79.3723 107.333 81.9288 106.669 87.5682C106.217 91.4027 106.255 92.645 106.88 94.4535C107.185 95.3362 108.108 97.2226 108.521 97.8095C109.041 98.5483 109.81 99.0966 110.807 99.44C112.116 99.8912 113.377 99.8884 114.946 99.4308C116.511 98.9744 117.043 98.5795 118.277 96.9597C121.076 93.2858 123.138 89.4114 124.457 85.35C125.228 82.9744 125.536 81.5745 126.243 77.2176C126.426 76.0898 126.779 74.0452 127.028 72.6741C127.565 69.7176 127.719 68.5721 127.731 67.4461C127.749 65.8392 127.472 64.4877 126.62 62.0221C126.358 61.2668 126.118 60.5465 126.086 60.4216C126.038 60.2346 126.199 59.9153 126.997 58.6208C128.264 56.5634 128.865 55.3784 129.316 54.0496C129.916 52.2824 130.117 50.4835 129.886 48.9451C129.707 47.7485 129.334 46.8597 127.032 42.1358C124.695 37.3388 124.931 37.7363 123.858 36.7929C123.46 36.4432 123.365 36.3068 123.026 35.5939C122.57 34.6358 122.152 34.1039 121.332 33.4353C120.584 32.8254 119.913 32.4409 118.866 32.0214C117.698 31.5536 117.694 31.5483 116.998 29.5009C116.226 27.232 115.838 26.2303 115.328 25.1889C114.679 23.8646 114.336 23.4043 113.532 22.7776C113.009 22.3708 112.725 22.0769 112.385 21.5947C111.587 20.4595 110.141 19.0582 108.363 17.6962C107.327 16.9027 106.865 16.6192 106.159 16.3415C105.607 16.125 105.237 15.8669 104.625 15.274C104.025 14.6932 103.538 14.3942 102.653 14.0635C101.707 13.7103 101.029 13.6391 100.186 13.8045C99.8368 13.8729 99.4974 13.8982 99.4314 13.8607C99.3143 13.7941 99.1538 13.4156 98.7566 12.2695C97.8919 9.77482 94.7877 7.18482 91.1439 5.91783C88.8921 5.13488 87.1235 4.98909 85.1997 5.42788C84.8068 5.51748 84.3594 5.58771 84.2056 5.58394C83.7268 5.5722 82.9386 4.85308 81.5813 3.18956C80.8417 2.28323 80.2887 1.87061 79.391 1.55549C77.6306 0.937449 73.8217 0.454581 70.6455 0.446755C66.2269 0.435874 62.2083 1.04769 54.3391 2.9293C52.8624 3.28241 51.0403 3.70029 50.2901 3.85792C47.7186 4.39824 44.5943 5.41427 42.9021 6.26061C42.3172 6.55311 41.76 6.84824 41.6639 6.91648ZM47.3001 5.73793C50.5975 4.72193 57.0457 3.21328 61.0966 2.51007C66.387 1.59171 69.7062 1.42348 74.4633 1.83261C75.6184 1.93199 76.7989 2.00786 77.0866 2.00127C77.3743 1.99466 77.7111 1.98643 77.8351 1.98295C78.1619 1.97377 79.1614 2.52272 80.0286 3.18768C80.5857 3.61485 80.9167 3.94375 81.3036 4.45475C81.5911 4.83433 82.2478 5.56696 82.7631 6.08279C83.9372 7.25816 84.3064 7.8311 84.2306 8.35955C84.193 8.62082 84.1078 8.77063 83.9089 8.92528C83.2262 9.45596 83.1403 9.55616 83.1855 9.76934C83.2217 9.93997 83.3442 10.0248 83.8375 10.2206C84.4096 10.4477 84.4508 10.4808 84.5442 10.7871C84.7645 11.5094 84.8478 14.5818 84.7184 17.21L84.6386 18.8317L84.3165 18.7777C83.799 18.6908 82.5001 18.2622 82.2472 18.0948C81.7257 17.7497 79.302 17.9296 76.3202 18.5347C75.0131 18.8 73.526 19.2997 73.7734 19.3905C73.9101 19.4407 75.5674 19.1912 77.7363 18.7939C80.3345 18.3179 81.2185 18.3382 82.9166 18.9126C83.9913 19.2761 84.4196 19.5126 84.574 19.8279C84.6969 20.0789 84.6535 23.4234 84.4973 25.7429C84.3588 27.7983 84.236 28.9697 84.0072 30.4194C83.7909 31.7898 83.6529 32.9303 83.3274 36.0382C82.8901 40.2152 82.5012 42.9006 81.7974 46.6038C80.8569 51.5528 80.4711 53.0701 79.2617 56.5783C78.3954 59.091 77.9433 60.1179 77.2135 61.2309C75.5767 63.7267 72.7604 66.2723 70.6449 67.1681C69.3573 67.7134 65.2606 68.7174 63.8456 68.8345C62.4835 68.9472 60.7215 68.5368 56.8174 67.1974C55.4195 66.7179 54.9011 66.4962 54.5724 66.2377C53.8583 65.6759 53.7455 65.2911 53.1017 61.2218C52.0247 54.4146 51.7735 52.048 51.2624 43.8979C50.9858 39.4864 50.8977 38.8158 50.3009 36.5768C49.5839 33.8869 48.8258 31.993 46.9193 28.1279C45.5815 25.4158 45.5747 25.4038 46.2695 26.9801C49.0838 33.3651 49.6564 35.152 50.2457 39.3883C50.8245 43.5489 51.1067 47.8419 50.8446 48.4989C50.7653 48.6975 50.7579 48.6913 50.5447 48.2517C50.2758 47.6971 50.1271 47.0574 49.8966 45.4635C49.7985 44.7855 49.4827 43.3252 49.1947 42.2183C48.9067 41.1115 48.4421 39.2555 48.1623 38.0939C47.3637 34.7787 46.6347 32.3309 45.4127 28.8616C44.7756 27.0526 43.8254 24.9058 43.4498 24.4265C43.299 24.2341 42.8365 23.472 42.4221 22.7329C42.0077 21.9939 41.3298 20.7848 40.9155 20.046C39.9214 18.2731 39.2265 17.319 38.2143 16.3375L37.393 15.5411L37.4424 15.2594C37.5174 14.8313 38.6969 11.4979 39.0016 10.8529C39.7184 9.33558 40.497 8.74096 43.8487 7.15082C45.6517 6.29547 46.142 6.09477 47.3001 5.73793ZM41.6267 8.99514C41.5915 9.09802 41.92 9.40671 42.8827 10.1753C44.8587 11.7531 47.8118 15.2165 49.1356 17.509C49.6308 18.3665 50.1633 19.1318 50.2391 19.0948C50.4345 18.9994 49.6721 17.5957 48.3542 15.6245C46.8898 13.4342 45.9652 12.3369 44.3516 10.8746C43.0853 9.7269 41.7027 8.77329 41.6267 8.99514ZM39.8882 12.1485C40.0639 12.5086 41.7915 14.0479 42.0492 14.074C42.209 14.0902 42.1036 13.9475 41.5087 13.3417C40.9822 12.8055 39.9334 11.9451 39.8537 11.984C39.8334 11.9939 39.8488 12.0679 39.8882 12.1485ZM49.3483 9.35773C50.3085 9.36822 50.8041 9.7502 51.7663 11.2214C52.9811 13.0787 55.6214 18.543 56.5949 21.2144C57.9257 24.8666 58.3266 26.8712 59.1954 34.22C59.5315 37.063 60.1196 41.2083 60.3461 42.3307C60.5088 43.1371 60.7023 43.3134 60.6917 42.6456C60.688 42.4062 60.5024 40.7629 60.2794 38.9937C60.0565 37.2245 59.6964 34.3195 59.4792 32.538C58.8687 27.5305 58.5331 25.8763 57.5347 22.9524C55.6662 17.4806 53.4566 12.8134 51.3663 9.92314C50.6483 8.93032 50.5387 8.8757 49.6303 9.05859C48.7586 9.23407 48.6493 9.35011 49.3483 9.35773ZM32.0832 17.7561C32.2507 17.7748 32.3836 18.2385 32.7367 20.0363C33.0285 21.5225 33.2232 22.0465 34.4815 24.7331C35.6824 27.2972 36.544 28.9121 36.4558 28.4335C36.4132 28.2028 36.1333 27.5073 34.7077 24.0898C33.1614 20.3833 32.513 17.5491 33.1411 17.2426C33.426 17.1035 34.6704 16.8914 35.6927 16.8076C36.9278 16.7064 37.1062 16.7646 37.8281 17.5043C38.8625 18.5641 40.1761 20.6844 41.96 24.1737C44.3911 28.9289 45.332 31.5536 46.8279 37.7537C47.125 38.9848 47.5717 40.7212 47.8206 41.6123C48.5383 44.1811 48.8071 45.2481 49.028 46.4045C49.2553 47.5945 49.5484 48.6327 49.93 49.5992C50.3828 50.7462 50.5981 51.6131 50.7979 53.0937C50.9064 53.8975 51.2738 56.2674 51.6144 58.36C52.3987 63.1791 52.7022 65.3359 52.6269 65.5558C52.5943 65.6511 52.4015 65.8801 52.1985 66.0646C51.8837 66.3508 51.5636 66.5218 50.0196 67.2286C47.366 68.4435 45.9494 68.8719 44.5638 68.8785C42.7677 68.8872 41.3942 68.0852 38.7095 65.4604C35.6979 62.5159 34.0304 60.3738 31.8923 56.7026C29.5054 52.6043 25.163 44.1174 23.6008 40.4977C20.9514 34.3589 20.0778 30.8352 20.728 28.9107C21.5248 26.5528 27.098 20.5294 30.1813 18.694C31.1888 18.0943 31.913 17.7371 32.0832 17.7561ZM34.1965 18.7238C34.1896 19.0404 34.8865 21.5626 35.107 22.0187C35.2805 22.3778 35.3758 22.2643 35.3086 21.7787C35.1982 20.9812 34.6777 18.8098 34.5459 18.5966C34.3608 18.2975 34.2046 18.3544 34.1965 18.7238ZM42.587 14.6641C42.6027 14.8405 42.8926 15.2215 42.979 15.1794C43.0667 15.1366 42.7779 14.5485 42.6635 14.5369C42.6148 14.532 42.5803 14.5892 42.587 14.6641ZM27.8536 22.2484C27.6197 22.4497 27.8171 22.4844 28.1822 22.3062C28.5836 22.1103 28.7003 21.9229 28.3825 21.9844C28.172 22.0252 28.0316 22.0953 27.8536 22.2484ZM26.6633 23.4251C26.6838 23.467 26.8716 23.4179 27.0806 23.3159C27.2896 23.2139 27.4735 23.156 27.4892 23.1873C27.505 23.2186 27.4537 23.3955 27.3753 23.5805L27.2327 23.9169L27.6325 23.6755C28.0756 23.408 28.6534 22.7879 28.5314 22.7106C28.3263 22.5807 26.5776 23.2495 26.6633 23.4251ZM35.2435 19.3537C35.2609 19.8429 35.5615 20.6545 36.1548 21.8142L36.7538 22.9852L36.6075 22.443C36.3508 21.4915 35.9623 20.4698 35.5931 19.7752C35.2729 19.1729 35.2354 19.1277 35.2435 19.3537ZM65.0173 4.8489C65.1382 5.19944 65.4227 5.64237 65.502 5.60367C65.5857 5.56281 65.2567 4.89708 65.0698 4.72889C64.9507 4.62179 64.9441 4.63678 65.0173 4.8489ZM22.5205 26.7923C22.7062 28.1982 24.8604 33.7669 27.3746 39.3405C29.4247 43.8851 32.4121 49.176 35.7436 54.1622C38.2755 57.9515 41.4189 62.0941 42.0434 62.4644C42.3451 62.6433 41.7364 61.6987 39.7449 58.8977C33.4524 50.0473 30.9821 45.8808 27.4378 38.1406C25.7294 34.4098 25.1102 32.9474 24.2451 30.6004C23.9207 29.7202 23.5356 28.6761 23.3894 28.2801C23.0295 27.3052 22.6807 26.5961 22.5842 26.6432C22.5411 26.6642 22.5124 26.7313 22.5205 26.7923ZM28.2117 23.9572C28.1683 24.0841 28.3257 24.1244 28.5111 24.0339C28.7398 23.9223 28.8952 23.7559 28.8525 23.6684C28.8148 23.5912 28.2498 23.8459 28.2117 23.9572ZM44.4805 16.6822C44.5388 16.9974 45.3565 18.6084 45.585 18.8581C45.8106 19.1045 45.9561 19.0821 45.9737 18.7983C45.9931 18.4845 45.243 16.98 44.9047 16.6543C44.5884 16.3498 44.4211 16.3608 44.4805 16.6822ZM66.6739 7.48646C66.6539 7.7299 66.6883 8.26542 66.7504 8.67651C67.0095 10.3929 67.1808 13.9763 67.1649 17.349C67.1569 19.0555 67.1745 19.3132 67.2745 18.9477C67.581 17.8267 67.6703 15.5519 67.5203 12.6909C67.3833 10.0774 67.0626 7.55929 66.8221 7.20738C66.7233 7.06293 66.7061 7.09546 66.6739 7.48646ZM32.0544 25.9868C31.9998 26.0775 32.1304 26.0417 32.4901 25.8671C32.7826 25.7252 32.9877 25.5851 32.9665 25.5417C32.9188 25.444 32.1574 25.8155 32.0544 25.9868ZM32.9736 26.6169C32.8838 26.7944 32.901 26.7952 33.2464 26.6294C33.5079 26.5039 33.5924 26.4293 33.5372 26.3725C33.4218 26.2535 33.0831 26.4003 32.9736 26.6169ZM18.6013 34.0682C19.5952 33.7032 19.8656 33.7067 19.9741 34.0858C20.4519 35.7564 21.0876 37.3803 22.5081 40.5589C25.3702 46.9637 30.4326 56.6227 32.8908 60.3695C34.077 62.1773 34.7597 63.011 36.5008 64.7776C37.7481 66.0431 38.2346 66.6409 38.1703 66.8289C38.0743 67.1092 37.5602 66.897 34.7889 65.4334C34.1613 65.1019 33.6624 64.8849 33.6802 64.9512C33.7154 65.0818 35.2553 66.2215 35.9013 66.5949C36.1205 66.7216 36.6807 67.0089 37.1463 67.2333L37.9928 67.6414L38.0073 68.6377C38.0153 69.1857 37.9707 69.9425 37.9083 70.3195C37.5419 72.5347 35.9301 75.1569 33.9631 76.7382C33.3436 77.2363 31.5331 78.3767 31.4292 78.3343C31.2114 78.2456 27.476 76.0121 26.2026 75.2093C20.6499 71.7087 14.9829 67.367 12.8829 65.0045C11.9707 63.9783 11.3401 63.5382 11.4931 64.0344C11.5742 64.2978 13.5553 66.2698 14.9483 67.4738C16.5286 68.8397 20.9304 72.2442 23.2379 73.8854C26.0952 75.9175 27.4786 76.7813 30.0814 78.1589C30.9487 78.6179 31.1009 78.7565 30.8646 78.8718C30.6369 78.9829 29.5404 78.5093 26.9609 77.1854C25.6404 76.5078 24.0327 75.7301 23.3882 75.4572C22.7437 75.1843 21.88 74.7773 21.469 74.5528C19.7294 73.6027 15.6206 70.0576 12.6844 66.9736C6.84219 60.837 4.88131 57.2308 5.198 53.2054C5.39634 50.6842 6.66113 47.4479 9.02793 43.4055C10.8212 40.3426 12.4984 38.214 14.4245 36.5566C15.7925 35.3793 17.0156 34.6506 18.6013 34.0682ZM78.0266 5.6398C78.0715 5.73181 78.4786 6.03385 78.9312 6.31098C79.3838 6.58814 79.8375 6.86773 79.9394 6.93232C80.2692 7.14134 80.7253 7.23633 81.016 7.15651C81.5932 6.99799 81.3993 6.56914 80.3702 5.72809C79.7891 5.25325 79.2444 4.93938 79.1128 5.00362C79.0015 5.05794 79.2474 5.33912 79.7783 5.76457C80.401 6.26363 80.5126 6.39756 80.3652 6.46948C80.2988 6.50188 80.056 6.42236 79.8256 6.2928C78.3918 5.48644 77.857 5.2923 78.0266 5.6398ZM69.083 10.0785C69.2561 10.2038 70.4182 10.3798 70.5731 10.3042C70.6994 10.2426 70.6549 10.1305 70.4433 9.97732C70.2167 9.81332 69.4017 9.74289 69.1503 9.86561C68.9615 9.95774 68.9531 9.98441 69.083 10.0785ZM68.6139 11.2495C68.5181 11.4558 68.5255 11.488 68.6846 11.5605C68.9063 11.6614 69.7402 11.6526 69.959 11.5471C70.2647 11.3996 70.088 10.9301 69.6727 10.7865C69.3193 10.6643 68.7751 10.9022 68.6139 11.2495ZM16.8575 37.4468C16.9944 37.7586 19.4317 41.7752 19.9591 42.5582C20.7027 43.6622 21.2817 44.2164 20.9224 43.4802C20.5936 42.8065 16.6231 36.9133 16.8575 37.4468ZM12.6723 39.9776C12.59 40.0734 12.7277 40.0338 13.1104 39.8515C13.4644 39.683 13.6378 39.5663 13.5844 39.5324C13.483 39.4682 12.8406 39.7817 12.6723 39.9776ZM48.2179 22.9253C48.2558 23.0691 48.7992 24.2378 49.4256 25.5224C51.6494 30.0827 52.9714 33.8285 54.7304 40.5532C56.9705 49.1169 57.3415 52.3813 56.4994 56.1176C56.2512 57.2188 56.2279 57.4855 56.3786 57.5007C56.5068 57.5137 56.6956 57.2021 56.9391 56.5752C57.7515 54.484 57.5781 50.6356 56.431 45.2936C55.3695 40.3505 53.1121 32.6528 51.5868 28.7752C50.7368 26.6144 48.4764 22.5042 48.2096 22.6344C48.1764 22.6506 48.1801 22.7815 48.2179 22.9253ZM12.9864 40.8665C12.6628 41.2254 13.065 41.5743 13.3954 41.2213C13.6045 40.9979 13.8444 40.5472 13.8012 40.4588C13.7573 40.3687 13.1705 40.6624 12.9864 40.8665ZM86.7014 6.11863C88.3551 6.12294 91.5252 7.00043 93.1776 7.91127C94.6423 8.71867 95.9708 9.88999 96.7879 11.0945C98.3419 13.3854 98.7419 16.5802 98.0928 21.5154C97.8371 23.4598 97.7576 24.4718 97.8464 24.6537C97.9527 24.8717 98.2238 24.5192 98.4207 23.9069C98.9662 22.2106 99.4162 19.3159 99.4669 17.1771C99.5069 15.4915 99.5562 15.3881 100.518 14.9733C101.243 14.6608 101.778 14.6518 102.422 14.9416C103.148 15.2686 104.348 16.3405 104.842 17.104C105.386 17.9452 105.463 20.3069 105.03 22.8978C104.71 24.809 104.714 26.2148 105.038 26.0567C105.618 25.7736 106.364 22.3263 106.348 19.9984C106.341 18.8519 106.28 18.4103 106.069 17.9768C105.423 16.6482 109.177 19.3406 110.922 21.4574C111.983 22.7445 111.96 23.4219 110.693 28.1118C109.877 31.1314 109.727 32.0764 110.091 31.8987C110.501 31.6985 110.819 30.9293 111.966 27.3582C112.458 25.8244 112.75 25.1938 112.983 25.1596C113.133 25.1375 113.135 25.1198 112.997 25.0199C112.625 24.751 112.54 24.0447 112.847 23.7855C113.181 23.5038 113.583 23.9224 114.342 25.3403C115.03 26.6272 115.367 27.5418 116.02 29.9022C116.418 31.3389 116.517 31.8179 116.482 32.1317C116.414 32.726 115.951 34.0952 115.201 35.9163C114.834 36.8078 114.381 37.9261 114.195 38.4014C113.586 39.9622 110.996 45.0809 109.428 47.8267C107.043 52.0015 100.745 61.08 97.8871 64.4622C97.0456 65.4582 95.2355 67.3791 94.9451 67.5844C94.6799 67.7719 93.0875 68.1216 92.1785 68.192C90.671 68.3089 88.4477 68.1129 86.6164 67.7019C85.4628 67.443 83.2974 66.7216 82.2041 66.2319C80.0007 65.2451 78.0858 63.7915 77.9809 63.0261C77.9329 62.6756 78.3717 61.4085 79.2127 59.469C80.7531 55.9166 81.7585 52.3065 82.9367 46.0977C83.2575 44.4071 83.5696 43.0731 83.7972 42.4195C84.4945 40.4169 85.3003 34.9778 85.6143 30.1531C85.6678 29.3314 85.7028 27.0879 85.6921 25.1675C85.6695 21.1036 85.7357 16.5378 85.8403 14.9428C85.9654 13.0357 85.8093 11.5658 85.3259 10.1015C85.0869 9.37754 85.0592 9.19562 85.1319 8.82726C85.2201 8.38013 85.2243 7.95209 85.1475 7.2262C85.0667 6.46181 85.5524 6.11562 86.7014 6.11863ZM13.8671 42.5222C13.7185 42.6867 13.7197 42.6918 13.9105 42.7075C14.1452 42.7268 15.522 42.0447 15.6648 41.8383C15.9085 41.486 14.2244 42.1267 13.8671 42.5222ZM19.6038 40.5664C19.9771 41.3518 20.3984 41.9733 20.812 42.3489C21.4198 42.9008 21.1124 42.1124 20.3162 41.077C20.0358 40.7124 19.6824 40.2834 19.5309 40.1237L19.2553 39.8333L19.6038 40.5664ZM9.86641 44.8756C10.2468 45.4147 12.345 46.8306 12.5942 46.7162C12.662 46.6851 12.6438 46.6311 12.5296 46.5238C11.9985 46.0245 10.0152 44.6503 9.79328 44.6278C9.71717 44.6201 9.73944 44.6956 9.86641 44.8756ZM10.0505 46.6578C10.1903 46.9442 11.4596 47.8777 12.2784 48.2963C12.7074 48.5155 13.7038 48.9147 14.4927 49.1832C17.7247 50.2833 18.7527 51.1478 21.4254 55.0131C23.048 57.3599 24.3822 58.9868 24.7907 59.1166C24.9523 59.168 24.8289 58.9751 24.061 57.9754C23.7709 57.5977 23.0187 56.5014 22.3894 55.5391C20.1638 52.1354 19.0062 50.861 17.134 49.7536C16.8026 49.5576 15.8294 49.1403 14.9713 48.8264C13.0443 48.1215 12.4512 47.8531 11.0977 47.0734C10.5112 46.7356 10.0171 46.466 9.99989 46.4745C9.98261 46.4829 10.0054 46.5654 10.0505 46.6578ZM15.3677 44.0061C15.2272 44.1758 15.404 44.3193 15.7305 44.3006C16.0978 44.2796 16.9703 43.8435 16.9494 43.6913C16.9177 43.4609 15.6026 43.7226 15.3677 44.0061ZM34.3302 36.3236C34.9012 39.8093 36.294 44.3138 38.3444 49.3053C39.0944 51.1311 41.3663 55.7865 42.2702 57.3499C43.2979 59.1274 44.4445 60.9101 45.6018 62.5301C47.0183 64.5128 47.4853 65.0663 48.4462 65.9013C50.0985 67.3371 50.3085 67.1623 48.7447 65.6528C47.2714 64.2307 46.0824 62.6733 44.4169 59.9843C42.8782 57.5002 41.8676 55.603 40.2057 52.0793C37.8061 46.9912 36.8844 44.5016 35.5581 39.5244C34.973 37.3285 34.5822 35.9895 34.4427 35.7023C34.2683 35.3434 34.2166 35.6296 34.3302 36.3236ZM7.07695 53.6146C6.92642 54.087 6.96039 54.4723 7.14466 54.3823C7.28652 54.3131 7.55014 53.7034 7.58311 53.3682C7.62314 52.9617 7.60616 52.9298 7.40289 53.029C7.30641 53.076 7.171 53.3193 7.07695 53.6146ZM8.37755 53.836C8.01936 54.3621 7.92969 54.6539 8.05027 54.901C8.1081 55.0195 8.18767 55.1007 8.2271 55.0814C8.33331 55.0296 8.88017 53.7424 8.88798 53.5259C8.89776 53.2552 8.68503 53.3844 8.37755 53.836ZM92.9941 13.3613C93.1433 13.6669 93.9633 13.7328 94.2174 13.4597C94.3541 13.3127 94.2183 13.2428 93.6767 13.1816C93.1936 13.1269 92.9155 13.2002 92.9941 13.3613ZM40.0119 40.0784C39.9751 40.3727 40.0886 40.5568 40.3225 40.5825C40.5879 40.6117 40.6668 40.3248 40.4797 40.011C40.286 39.686 40.0569 39.719 40.0119 40.0784ZM80.9636 20.7069C80.9367 20.8703 80.9295 21.4758 80.9476 22.0524C81.0556 25.4939 80.8364 31.6011 80.5028 34.4428C80.2348 36.7254 80.192 38.7265 80.4095 38.8017C80.5076 38.8356 80.4765 39.0443 80.7986 36.1866C81.3734 31.0866 81.5367 28.1365 81.4487 24.4455C81.3827 21.6781 81.2586 20.2897 81.0848 20.3745C81.0451 20.3939 80.9906 20.5435 80.9636 20.7069ZM93.7533 14.8292C93.9558 15.0732 94.3035 15.1921 94.4268 15.0595C94.5664 14.9094 94.465 14.7601 94.1366 14.6324C93.7462 14.4805 93.5483 14.5822 93.7533 14.8292ZM92.6108 15.6612C92.6998 15.8436 94.958 16.7196 95.1268 16.6372C95.3438 16.5313 95.0387 16.2983 94.1726 15.9085C93.5344 15.6213 92.5123 15.4594 92.6108 15.6612ZM11.1056 56.0995C10.8538 56.3524 10.6656 56.5959 10.6873 56.6405C10.7409 56.7502 12.0707 55.9982 12.2477 55.7581C12.4233 55.5199 12.4207 55.5381 12.2965 55.4221C12.1372 55.2733 11.6551 55.5475 11.1056 56.0995ZM92.4808 16.7447C92.5372 16.8602 93.1138 17.1454 94.4757 17.7314C94.9125 17.9193 95.3861 18.1661 95.5282 18.2799C95.6703 18.3936 95.8155 18.4726 95.8509 18.4554C95.9435 18.4101 95.8478 18.03 95.7096 17.8945C95.3557 17.5474 93.8231 16.8538 93.0597 16.6953C92.4732 16.5735 92.4003 16.5797 92.4808 16.7447ZM6.01048 60.2938C6.06701 60.3571 6.24387 60.6212 6.4035 60.8808C7.32645 62.3818 10.4836 66.2752 12.3548 68.2202C14.0737 70.0066 19.3182 74.4351 20.5798 75.1652C20.9408 75.3742 21.7981 75.7984 22.4849 76.108C25.2361 77.3483 28.9237 79.4415 29.8434 80.285C30.2719 80.6781 29.9661 80.8708 29.0629 80.7769C28.671 80.7362 28.4299 80.7693 28.0722 80.9128C27.4254 81.1723 27.3997 81.2945 27.9304 81.5874C28.1603 81.7143 28.3145 81.8197 28.2731 81.8218C28.2316 81.8238 27.6771 81.7549 27.0407 81.6685C25.4378 81.4509 23.3736 81.3053 20.8752 81.2335C19.7086 81.2 18.3253 81.1184 17.8013 81.0522C15.4332 80.753 12.8803 79.8316 11.2239 78.6783C10.943 78.4827 10.6722 78.3185 10.6221 78.3134C10.4366 78.2946 10.7167 78.6671 11.1441 79.0076C11.8202 79.5461 12.6606 79.9492 14.2196 80.4827C16.6471 81.3134 18.2222 81.5931 21.0241 81.6908C21.9421 81.7228 23.581 81.8269 24.6661 81.9222C27.1653 82.1414 28.4919 82.1429 28.9475 81.927C29.1325 81.8393 29.2787 81.7244 29.2723 81.6718C29.266 81.6191 29.0513 81.4706 28.7953 81.3418L28.3299 81.1076L28.8126 81.1906C29.6713 81.3383 29.8183 81.5129 29.7202 82.2686C29.6452 82.8464 29.3099 83.265 28.6771 83.5714C27.9823 83.9077 27.4508 83.9662 26.1706 83.8475C23.7035 83.6186 19.5622 83.4796 17.5179 83.557C15.4242 83.6363 13.3784 83.4401 10.4487 82.8792C7.42776 82.3008 5.91299 81.5771 4.80223 80.1816C4.18709 79.4088 3.66032 78.1325 3.4687 76.9507C3.29936 75.9065 3.09556 75.2409 2.96475 75.3047C2.76391 75.4027 2.9311 77.1028 3.2521 78.2266C3.32937 78.497 3.55858 79.0649 3.76149 79.4886L4.13041 80.2589L3.6779 79.8189C2.80669 78.9718 2.11604 77.4057 1.69069 75.313C1.46366 74.196 1.39658 73.2807 1.44416 71.948L1.48499 70.8033L2.16297 71.3612C3.63364 72.5714 5.22901 73.7412 6.14256 74.2793C6.66996 74.5899 7.23488 74.9448 7.3979 75.0678C8.00367 75.5248 11.7028 76.7461 13.0593 76.937C14.2433 77.1036 13.6776 76.8187 10.655 75.7261C8.25353 74.858 7.33854 74.4403 6.04586 73.6222C5.16028 73.0618 1.53666 70.4801 1.48393 70.3721C1.43985 70.2818 2.31347 67.9617 2.70213 67.1369C3.06668 66.3634 3.18799 66.2447 3.51121 66.3453C3.78157 66.4294 4.7148 67.1562 5.97599 68.2648C9.1055 71.0157 14.6418 74.5686 17.8608 75.8919C18.8783 76.3101 20.2778 76.7327 20.3123 76.632C20.3305 76.5789 19.9745 76.4055 17.548 75.2858C16.2806 74.7009 14.6313 73.7114 11.3466 71.5652C7.9033 69.3154 7.59582 69.0944 6.36151 67.9823C4.73577 66.5174 3.60197 65.1235 3.46579 64.4222C3.30007 63.5688 3.93659 62.1274 5.00702 60.9321C5.56808 60.3055 5.8569 60.1218 6.01048 60.2938ZM87.7969 20.9883C87.9191 22.1148 88.0224 22.6507 88.1791 22.9718C88.4471 23.5209 88.5603 23.1118 88.3964 22.1865C88.3139 21.7201 87.8386 20.2862 87.7573 20.258C87.7347 20.2502 87.7525 20.5788 87.7969 20.9883ZM41.6465 43.516C41.6682 44.0351 41.8111 44.5451 41.92 44.4919C42.0381 44.4343 42.0337 43.7682 41.9126 43.3712C41.7745 42.918 41.625 42.9993 41.6465 43.516ZM86.2863 23.2661C86.299 23.6227 86.4198 24.8904 86.5549 26.0833C86.7944 28.1989 86.9089 29.7483 86.8966 30.7087C86.8834 31.7401 86.6486 33.9345 86.3273 36.0305C85.7695 39.6684 85.6933 40.2481 85.757 40.3704C85.8371 40.5241 85.9537 40.0804 86.2964 38.3186C87.0328 34.5332 87.2939 32.3364 87.2204 30.5421C87.1327 28.3984 86.7893 24.8192 86.5311 23.3573C86.3946 22.5847 86.2603 22.5347 86.2863 23.2661ZM11.5576 61.5012C11.6059 61.6164 12.2759 62.1875 13.9724 63.5598C16.4613 65.5731 18.2552 67.1124 21.0912 69.6685C24.3778 72.6308 25.5857 73.6398 26.2643 73.9899C27.3241 74.5367 27.2256 74.2942 26.0046 73.3506C25.5145 72.9719 24.1946 71.8282 23.0715 70.8089C18.7348 66.8736 12.8207 62.0017 11.8931 61.6006C11.6957 61.5152 11.5447 61.4705 11.5576 61.5012ZM43.604 48.2019C44.3655 50.001 48.2998 57.3706 48.6621 57.6765C48.7455 57.747 48.0094 56.2034 46.8724 53.9237C44.2557 48.6771 42.5162 45.6318 43.604 48.2019ZM88.7845 26.837C88.5661 27.8314 88.4052 28.9545 88.2209 30.7705C87.6051 36.84 86.2355 44.6972 85.1428 48.4294C84.3856 51.016 82.8741 54.8392 81.6928 57.1564C81.1982 58.1265 80.944 58.5408 79.7789 60.2751C79.3742 60.8775 79.2843 61.0952 79.4794 61C79.8924 60.7984 81.8996 57.7615 82.7353 56.0739C83.8218 53.8796 85.3256 49.7254 86.0161 47.0106C87.165 42.4936 88.1611 36.4875 88.8317 30.033C89.02 28.2197 89.1431 26.297 89.0792 26.166C89.0101 26.0245 88.9157 26.2395 88.7845 26.837ZM47.1311 47.1414C47.125 47.203 47.2815 47.1624 47.5438 47.0344C47.7762 46.921 47.9496 46.7939 47.9292 46.7519C47.9087 46.71 47.723 46.7582 47.5164 46.859C47.3098 46.9598 47.1365 47.0869 47.1311 47.1414ZM79.3087 32.1253C79.2689 32.3638 79.2154 33.1427 79.1897 33.8562C79.1314 35.4714 78.8947 37.2543 78.4926 39.1059C78.2093 40.41 77.9864 41.6843 77.5884 44.2742C77.2867 46.2375 76.6582 48.6945 75.4497 52.6342C74.754 54.9024 74.392 56.2446 74.3791 56.6049C74.323 58.1583 76.6356 50.8911 77.7547 45.9967C77.9061 45.3346 78.1507 44.0681 78.2981 43.1823C78.4456 42.2965 78.735 40.661 78.9412 39.5478C79.5972 36.0058 79.7894 33.8311 79.5931 32.1744C79.5626 31.9177 79.5024 31.7041 79.4593 31.6998C79.4162 31.6954 79.3484 31.8869 79.3087 32.1253ZM85.3406 29.7556C85.2596 31.7631 84.4945 37.4257 84.3127 37.3628C84.2485 37.3406 84.2616 36.6934 84.3405 35.9865C84.8426 31.4899 85.1788 29.0451 85.3035 28.9843C85.3417 28.9656 85.3585 29.3127 85.3406 29.7556ZM18.7359 61.7482C18.7243 62.0699 18.9004 62.3195 19.1627 62.3531C19.6765 62.419 19.7293 61.8079 19.2337 61.5325C18.9861 61.3949 18.7449 61.4994 18.7359 61.7482ZM47.5998 47.9884C47.5719 48.1036 47.6051 48.152 47.7454 48.2005C48.1146 48.3282 48.6296 48.0928 48.6581 47.7832C48.6713 47.6404 48.6341 47.5968 48.4734 47.5665C48.2157 47.518 47.6471 47.7926 47.5998 47.9884ZM24.5789 60.6258C25.3034 61.3449 26.9316 62.7657 26.9896 62.7294C27.1242 62.6449 26.7234 62.1488 25.9927 61.4953C25.1695 60.7592 24.4187 60.2084 24.3105 60.2612C24.274 60.279 24.3948 60.4431 24.5789 60.6258ZM65.1709 40.4058C65.1158 40.4957 65.2197 40.5465 65.6036 40.6175C66.1229 40.7135 66.7465 40.6694 66.793 40.5334C66.841 40.3934 66.3191 40.1877 65.8947 40.1793C65.4441 40.1705 65.2849 40.2203 65.1709 40.4058ZM47.9328 48.8806C48.0069 49.0325 48.2878 49.1268 48.5571 49.0905C48.8933 49.045 49.2576 48.8026 49.1203 48.7157C48.8906 48.5702 47.8517 48.7145 47.9328 48.8806ZM48.859 49.4768C48.633 49.6757 48.8225 49.7252 49.1286 49.5472C49.3 49.4476 49.416 49.3355 49.3864 49.298C49.3265 49.2222 49.0367 49.3205 48.859 49.4768ZM66.3728 43.4692C66.3844 43.493 66.6403 43.6269 66.9415 43.7668C67.2427 43.9067 67.5139 44.0717 67.5441 44.1336C67.6261 44.3018 67.2816 44.3283 66.8011 44.1908C66.095 43.9886 65.463 44.0675 65.434 44.3615C65.4169 44.5359 65.9302 44.6247 66.9864 44.6301C68.1603 44.6361 68.3746 44.5819 68.5991 44.2225C68.8306 43.8518 68.7181 43.6722 68.174 43.5441C67.3406 43.348 66.2924 43.3044 66.3728 43.4692ZM30.8764 64.6479C31.1365 65.1809 33.7795 67.2872 35.3691 68.2283C35.8656 68.5223 36.3195 68.7676 36.3778 68.7735C36.5922 68.7952 36.5196 68.6441 36.1476 68.294C35.646 67.8221 31.2705 64.6128 30.989 64.5103C30.7722 64.4314 30.7713 64.4325 30.8764 64.6479ZM9.27245 77.2617C9.39837 77.524 9.47306 77.6088 9.52965 77.5538C9.64812 77.4383 9.50069 77.0986 9.28424 76.9883C9.10692 76.898 9.10617 76.9152 9.27245 77.2617ZM104.451 30.9863C104.387 31.1899 104.262 31.9227 104.174 32.6148C103.703 36.324 102.823 39.577 101.324 43.1555C100.555 44.9917 100.261 45.8002 100.319 45.919C100.37 46.0242 100.53 45.8113 100.861 45.1977C102.164 42.7798 103.338 39.4043 104.164 35.6968C104.697 33.3043 104.921 31.1257 104.671 30.765C104.575 30.6266 104.559 30.6422 104.451 30.9863ZM24.7148 71.0372C24.8078 71.1594 25.254 71.5524 25.7064 71.9107C27.6484 73.4486 30.1143 74.9521 31.47 75.4248C32.2952 75.7125 32.9753 75.8578 33.1356 75.7805C33.2679 75.7167 32.7128 75.4182 31.7657 75.0437C30.2358 74.4388 28.6072 73.5096 26.806 72.2138C25.9575 71.6035 24.648 70.765 24.5885 70.7941C24.5649 70.8056 24.6217 70.915 24.7148 71.0372ZM11.3366 77.7201C11.326 77.8279 11.6579 77.9179 12.3973 78.0076C12.7201 78.0468 13.5611 78.2083 14.2663 78.3664C16.7844 78.931 19.66 79.2074 23.6601 79.2693C25.0683 79.2911 26.5097 79.3457 26.8631 79.3907C27.5652 79.48 27.9839 79.3801 27.7172 79.1869C27.3091 78.8915 26.3465 78.7961 23.1644 78.7357C19.6107 78.6683 17.7858 78.515 14.7462 78.0285C12.4458 77.6603 11.3522 77.5614 11.3366 77.7201ZM40.2906 64.0709C40.2866 64.1816 40.4135 64.511 40.5756 64.8109L40.8677 65.3513L40.865 64.8805C40.8617 64.309 40.6463 63.7812 40.4383 63.8351C40.3605 63.8552 40.2945 63.9605 40.2906 64.0709ZM61.8126 54.2618C61.6853 54.9028 61.9026 56.2658 62.1155 56.1619C62.2149 56.1134 62.3908 54.6492 62.3409 54.2852C62.2605 53.6983 61.9274 53.6836 61.8126 54.2618ZM92.9074 39.1755C92.7865 39.6836 92.9071 41.5339 93.0843 41.8892L93.1825 42.0861L93.2386 41.8227C93.3638 41.2353 93.3235 39.2982 93.18 39.0041C93.1321 38.906 92.9433 39.0248 92.9074 39.1755ZM10.9634 84.1074C13.0379 84.5073 14.6958 84.62 17.56 84.5557C18.9328 84.5249 21.3155 84.6039 24.087 84.7722C27.7657 84.9956 28.5054 84.9527 29.4538 84.4611C29.7806 84.2917 30.0843 84.1656 30.1285 84.1809C30.1728 84.1962 30.1974 84.5195 30.1832 84.8993C30.1018 87.0806 30.1079 87.2141 30.3142 87.7362C30.5441 88.3182 31.4583 89.8405 33.4473 92.9534C35.0032 95.3885 35.1966 95.747 35.3434 96.4692C35.5714 97.5908 35.513 100.437 35.249 101.071C35.0867 101.46 34.5718 102.045 34.0415 102.441C33.5075 102.841 32.0373 103.525 31.3611 103.689C30.108 103.993 27.2705 103.792 25.7177 103.289C25.0788 103.082 24.9372 103.002 24.8339 102.791C24.7321 102.582 24.6909 102.558 24.5944 102.65C24.5233 102.718 24.2962 102.737 24.0123 102.699C23.3362 102.609 20.616 101.594 19.4377 100.992C18.0948 100.305 17.9134 100.159 14.3761 96.9027C13.8508 96.4192 12.6483 95.4234 11.7038 94.69C9.69414 93.1294 8.79312 92.3359 7.66855 91.1363L6.84877 90.2618L6.20334 86.8003C5.84836 84.8964 5.52067 83.1291 5.47513 82.8727L5.39233 82.4068L7.55457 83.1369C8.87283 83.5821 10.2034 83.9609 10.9634 84.1074ZM41.7138 65.8446C41.7055 66.3506 41.93 66.8898 42.128 66.8393C42.3399 66.7852 42.3151 66.2956 42.0757 65.805C41.9621 65.5722 41.8356 65.3982 41.7947 65.4182C41.7538 65.4381 41.7173 65.63 41.7138 65.8446ZM5.99604 83.2123C6.11623 83.2841 6.49159 83.5214 6.8302 83.7396C8.03595 84.5168 10.5733 85.4834 13.014 86.0953C14.3231 86.4235 15.1924 86.5655 16.6052 86.6817C17.2307 86.7331 18.2249 86.8715 18.8144 86.9893C21.181 87.4621 21.8855 87.5478 24.0193 87.6225C25.8661 87.6872 29.2602 87.4953 29.6343 87.305C29.7888 87.2265 29.7791 87.2162 29.4841 87.1463C29.3107 87.1052 28.4738 87.0797 27.6242 87.0897C23.3292 87.14 20.1548 87.0429 20.334 86.8666C20.3767 86.8248 20.8291 86.7557 21.3394 86.7132C22.3819 86.6264 23.8264 86.4288 25.804 86.1025C27.0985 85.8888 27.597 85.7511 27.4387 85.6508C27.2956 85.5602 25.3965 85.7111 23.5377 85.9607C20.8626 86.32 19.3054 86.3769 17.132 86.1949C14.6559 85.9875 13.0376 85.588 8.93441 84.1717C7.19815 83.5723 5.87589 83.1406 5.99604 83.2123ZM33.5912 71.2231C33.4579 71.4231 33.5595 71.5779 33.8484 71.6149C34.1303 71.6511 34.3121 71.5107 34.4058 71.1847C34.4695 70.9631 34.4665 70.9571 34.272 70.922C34.0407 70.8801 33.7275 71.0187 33.5912 71.2231ZM43.7993 67.4083C43.9372 67.6909 44.0764 67.8923 44.1193 67.8713C44.1615 67.8508 44.0968 67.6324 43.9743 67.3812C43.8527 67.1321 43.7086 66.9237 43.6542 66.9182C43.592 66.9119 43.646 67.0943 43.7993 67.4083ZM34.2091 72.3927C34.0514 72.5681 34.2119 72.612 34.4989 72.472C34.8876 72.2823 35.0537 72.1114 34.8695 72.0906C34.7265 72.0745 34.3335 72.2542 34.2091 72.3927ZM35.4747 72.431C34.6407 73.3333 34.5462 73.8253 35.3229 73.2224C35.8193 72.837 36.4717 71.9868 36.4182 71.7949C36.3573 71.5764 36.1118 71.7419 35.4747 72.431ZM61.6892 59.5558C61.6621 59.6602 61.5391 60.5384 61.4159 61.5072C61.1478 63.6148 60.9256 64.3051 60.3532 64.8086C58.726 66.2399 58.4001 66.7584 59.4547 66.2385C60.3905 65.7771 61.0009 65.0989 61.3916 64.0866C61.7169 63.2436 61.849 62.264 61.8512 60.6794C61.8529 59.4781 61.8016 59.1225 61.6892 59.5558ZM92.7199 45.1114C92.642 45.3752 92.4744 46.194 92.3475 46.931C91.966 49.1464 91.6922 50.2487 90.7173 53.493C90.3099 54.8486 90.2245 55.2528 90.3374 55.2918C90.7253 55.426 92.5136 49.25 92.858 46.5874C93.0698 44.9496 92.9972 44.1732 92.7199 45.1114ZM118.974 33.3464C120.139 33.7609 120.842 34.2667 121.161 34.9188C121.36 35.3262 121.386 35.3495 121.574 35.2836C121.735 35.2271 121.803 35.2592 121.917 35.4446C122.33 36.1182 121.779 37.5783 120.08 40.3152C119.242 41.6647 118.948 42.2425 119.076 42.2868C119.175 42.3211 119.799 41.6545 120.374 40.9009C120.851 40.2745 121.423 39.358 122.105 38.127C122.226 37.9084 122.386 37.7002 122.459 37.6643C122.667 37.5628 123.602 37.8042 123.888 38.0331C124.234 38.3093 124.697 39.2704 126.292 43.0165C127.835 46.6427 127.992 47.0357 128.315 48.0712C129.08 50.5225 128.967 52.1983 127.881 54.5096C126.708 57.0069 125.777 58.3204 123.016 61.375C120.44 64.224 116.805 68.1454 116.245 68.6782C114.938 69.9235 113.391 71.119 110.935 72.7828C108.18 74.6496 108.176 74.6522 107.083 75.05C103.525 76.3442 101.898 76.1746 99.3752 74.2467C97.0183 72.4456 95.4847 69.845 95.981 68.4906C96.0411 68.3264 96.2455 68.0356 96.4352 67.8444C97.1703 67.1034 100.693 62.8753 101.919 61.2632C102.568 60.4097 103.353 59.5896 104.448 58.621C106.138 57.1254 107.375 55.6345 108.76 53.4233C110.353 50.8792 111.431 48.5383 112.859 44.5209C113.428 42.9187 114.314 40.6168 114.828 39.4056C115.877 36.9328 117.282 33.8302 117.525 33.4488C117.809 33.0028 117.975 32.9911 118.974 33.3464ZM90.2355 48.8428C89.2947 53.0066 87.9971 56.1222 85.8287 59.4234C85.3684 60.1242 84.5897 61.3109 84.0983 62.0607C83.6068 62.8104 83.1758 63.5243 83.1405 63.6473C83.0779 63.865 83.0801 63.8689 83.2278 63.7968C83.3112 63.7561 83.791 63.1854 84.2939 62.5285C85.9742 60.3339 87.7084 57.567 88.4403 55.913C89.2563 54.0692 90.2783 50.8766 90.6162 49.116C90.7733 48.2975 90.825 47.2171 90.7127 47.1024C90.6752 47.0641 90.4604 47.8473 90.2355 48.8428ZM9.28647 89.0597C9.53691 89.5729 10.2945 90.5821 10.677 90.9119C11.0801 91.2596 11.264 91.199 11.1722 90.7489C11.1061 90.4249 10.595 89.5511 10.4638 89.5378C10.4196 89.5334 10.3691 89.6439 10.3516 89.7834C10.3342 89.923 10.2838 90.0335 10.2397 90.0291C10.1956 90.0246 10.0027 89.7574 9.81094 89.4353C9.61919 89.1132 9.41671 88.8071 9.36097 88.755C9.16461 88.5716 9.12576 88.7304 9.28647 89.0597ZM69.2279 61.2755C69.2869 61.3964 71.1023 61.5006 71.3176 61.3955C71.3351 61.387 71.3167 61.3131 71.2768 61.2314C71.2369 61.1497 71.0426 61.0501 70.8451 61.0103C70.2196 60.8841 69.1245 61.0637 69.2279 61.2755ZM11.9159 89.9027C11.8908 90.1573 12.2116 90.827 12.6486 91.4327C12.9086 91.793 13.1612 92.113 13.2098 92.1439C13.492 92.3226 13.035 91.225 12.4687 90.364C12.1454 89.8725 11.9361 89.6978 11.9159 89.9027ZM117.58 38.8889C117.337 39.6686 117.21 40.3109 116.891 42.3645C116.09 47.5232 115.301 49.156 110.529 55.5381C108.389 58.4011 108.259 58.6817 109.861 56.9854C112.44 54.2536 114.381 51.4894 115.718 48.6428C116.436 47.1155 116.856 45.6273 117.273 43.144C117.993 38.8544 118.081 38.1017 117.844 38.2173C117.808 38.2346 117.69 38.5368 117.58 38.8889ZM26.4764 83.208C26.5375 83.3332 26.9677 83.5116 27.0783 83.4576C27.1212 83.4367 27.0911 83.3133 27.0114 83.1834C26.8908 82.9866 26.8299 82.9602 26.6459 83.0251C26.4996 83.0767 26.4424 83.1384 26.4764 83.208ZM69.0609 64.1867C69.0098 64.2699 69.1416 64.2897 69.518 64.2554C70.2512 64.1885 70.5308 64.0594 70.4542 63.8232C70.4103 63.6878 70.3329 63.6455 70.1573 63.6613C69.8667 63.6874 69.1593 64.0264 69.0609 64.1867ZM68.0265 65.5409C67.8368 65.8541 68.9692 65.561 70.1266 64.9972C70.5344 64.7986 70.853 64.6055 70.8348 64.5681C70.7916 64.4796 70.5669 64.5313 69.7349 64.8214C68.4941 65.2541 68.0995 65.4203 68.0265 65.5409ZM83.2568 58.653C83.2065 58.7997 83.3367 58.9399 83.6114 59.0349C83.9302 59.1452 84.2386 59.0303 84.2994 58.7787C84.3354 58.6296 84.293 58.5924 83.988 58.5058C83.6575 58.4119 83.3157 58.4807 83.2568 58.653ZM82.4772 59.691C82.5921 59.9265 83.288 60.1798 83.5153 60.0689C83.7069 59.9754 83.6132 59.7945 83.2558 59.5682C82.7742 59.2631 82.3045 59.3372 82.4772 59.691ZM111.979 45.8091C111.514 47.2266 110.251 49.8437 109.03 51.9157C107.446 54.6056 106.251 56.201 104.53 57.9217C103.446 59.0052 103.447 58.9402 104.54 57.3109C104.944 56.7085 105.591 55.6818 105.978 55.0295C106.364 54.3771 106.852 53.6165 107.061 53.3393C107.773 52.3979 109.649 49.4189 111.205 46.7592C111.679 45.9483 112.09 45.2739 112.117 45.2607C112.144 45.2474 112.082 45.4942 111.979 45.8091ZM81.5117 60.6927C81.8944 61.1058 82.6944 61.4183 82.774 61.1857C82.8269 61.0312 82.2185 60.5758 81.8532 60.4964C81.4926 60.4181 81.339 60.5063 81.5117 60.6927ZM19.1513 91.1465C19.2568 91.3626 21.1963 91.7399 22.5828 91.8141C23.2851 91.8516 24.54 91.7773 24.7246 91.6872C24.7908 91.6549 24.8266 91.5907 24.8041 91.5447C24.7135 91.3591 23.9892 91.2369 23.062 91.2508C22.5231 91.2589 21.5834 91.1991 20.9738 91.118C19.3807 90.906 19.0366 90.9113 19.1513 91.1465ZM13.9204 93.7339C13.9834 93.863 15.2837 94.3289 16.0854 94.5096C17.5006 94.8287 17.9809 94.8055 20.1948 94.3116C21.2765 94.0704 22.4602 93.8482 22.8252 93.818C23.5906 93.7546 24.4658 93.8635 25.4384 94.1428C26.3355 94.4005 27.5213 94.5497 27.883 94.4504C28.042 94.4067 28.2271 94.3051 28.2944 94.2245C28.4034 94.0941 28.3478 94.0728 27.784 94.0296C27.436 94.0029 26.6262 93.8507 25.9843 93.6914C23.9295 93.1814 23.4246 93.1813 20.7049 93.69C18.979 94.0128 17.8595 94.1376 16.6065 94.1468C15.6789 94.1536 14.7976 93.9886 14.7006 93.7899C14.6738 93.7349 14.527 93.6628 14.3744 93.6296C14.0913 93.5681 13.8648 93.6201 13.9204 93.7339ZM80.2764 62.0036C80.6408 62.4459 81.8638 63.1407 82.0865 63.0321C82.2583 62.9482 82.1233 62.764 81.6247 62.4017C80.7858 61.7921 79.8823 61.5253 80.2764 62.0036ZM81.1891 61.6798C81.3005 61.9082 82.1307 62.2075 82.2618 62.0666C82.3919 61.9267 82.1972 61.7615 81.6662 61.5614C81.2609 61.4086 81.0788 61.4538 81.1891 61.6798ZM28.7539 89.597C28.8216 89.9609 28.977 90.2917 29.1964 90.5393L29.3398 90.7012L29.3981 90.3478C29.4428 90.0764 29.4089 89.8967 29.2521 89.5734C29.0702 89.1982 29.0287 89.1586 28.8703 89.2097C28.7255 89.2564 28.7039 89.3284 28.7539 89.597ZM30.6506 91.1318C31.0876 91.848 31.8508 92.506 31.9405 92.2439C32.0107 92.0387 30.6306 90.5987 30.4488 90.6875C30.4194 90.7018 30.5103 90.9017 30.6506 91.1318ZM94.5681 59.4767C94.5526 59.6345 95.2298 60.2295 95.8311 60.5866C96.3142 60.8734 96.3779 60.8907 96.3252 60.7208C96.1745 60.2355 94.6029 59.1228 94.5681 59.4767ZM17.8242 97.3656C17.8458 97.6088 18.4137 98.5094 18.4333 98.3313C18.4506 98.1736 18.165 97.5894 17.9544 97.3515C17.8186 97.1982 17.8095 97.1992 17.8242 97.3656ZM122.721 46.317C123.025 47.0045 123.586 48.0331 123.673 48.0636C123.824 48.1165 123.78 47.3347 123.613 46.9876C123.467 46.6824 123.153 46.3738 122.829 46.217C122.638 46.1245 122.636 46.1262 122.721 46.317ZM111.922 51.9534C110.697 53.4448 109.532 55.0741 109.452 55.4073C109.415 55.564 109.432 55.5649 109.612 55.416C110.071 55.0384 112.819 51.2842 112.746 51.1349C112.704 51.0477 112.502 51.2484 111.922 51.9534ZM18.5126 97.4634C18.5069 97.5219 18.6019 97.7147 18.7238 97.8919C19.1433 98.5019 19.4758 98.6338 19.4915 98.1964C19.5009 97.9354 19.2285 97.571 18.9074 97.4152C18.6353 97.2832 18.5291 97.2961 18.5126 97.4634ZM123.873 46.439C123.9 46.5427 124.054 46.9454 124.216 47.3339C124.377 47.7225 124.599 48.2729 124.708 48.5571L124.907 49.0738L124.925 48.7152C124.959 48.0351 124.495 46.5804 124.138 46.2467C123.983 46.1017 123.817 46.2223 123.873 46.439ZM94.7016 60.8275C94.9362 61.3082 94.8497 61.4624 94.3997 61.3658C94.0837 61.298 93.8475 61.3915 93.9265 61.5532C93.958 61.6178 94.1894 61.7491 94.4407 61.8451C94.9408 62.0362 95.0848 61.9579 95.094 61.4898C95.0995 61.2142 94.8284 60.6246 94.6899 60.6105C94.6323 60.6047 94.6372 60.6956 94.7016 60.8275ZM120.483 48.4714C120.669 48.8497 120.878 49.0248 120.856 48.7849C120.828 48.4714 120.533 48.0456 120.391 48.1148C120.354 48.133 120.395 48.2935 120.483 48.4714ZM107.885 56.7208C107.269 57.2866 106.639 58.0141 106.736 58.0478C106.906 58.1065 108.6 56.5753 108.838 56.1484C108.93 55.9832 108.918 55.98 108.675 56.1036C108.531 56.1766 108.175 56.4544 107.885 56.7208ZM22.6372 99.2534C22.7837 99.5536 25.355 100.518 26.735 100.79C27.6659 100.974 29.5338 100.987 30.4116 100.816C31.3776 100.628 33.1281 99.8506 33.6465 99.3794C33.8498 99.1945 33.9999 99.0099 33.98 98.9691C33.9336 98.8739 34.1134 98.8071 32.3867 99.5612C30.6865 100.304 29.9853 100.474 28.5394 100.495C27.3404 100.512 26.433 100.327 24.5212 99.6739C23.5484 99.3416 22.7152 99.0879 22.6697 99.1101C22.6242 99.1323 22.6095 99.1968 22.6372 99.2534ZM104.833 59.2169C104.695 59.3734 104.697 59.3877 104.85 59.3731C105.061 59.353 105.436 59.103 105.391 59.0121C105.373 58.9749 105.327 58.9598 105.289 58.9785C105.25 58.9973 105.166 59.0198 105.101 59.0287C105.037 59.0375 104.916 59.1222 104.833 59.2169ZM102.666 60.7565C102.526 60.9285 102.535 60.9307 102.863 60.802C103.238 60.6548 103.338 60.5365 103.108 60.5109C102.924 60.4902 102.85 60.5313 102.666 60.7565ZM28.0766 98.6359C28.1435 98.7731 28.923 98.9049 29.7106 98.9123C30.6771 98.9214 31.1218 98.7417 31.5677 98.1618C32.0378 97.5503 31.8777 97.4963 30.9419 97.9504C30.0948 98.3616 29.7929 98.4308 28.8919 98.4208C28.3491 98.4147 28.0121 98.5037 28.0766 98.6359ZM101.645 69.0763C102.108 70.0257 103.335 71.0888 104.483 71.5353C104.799 71.6581 105.279 71.7287 105.4 71.6699C105.531 71.606 105.257 71.3971 104.661 71.1059C103.852 70.7109 103.19 70.2137 102.282 69.3205C101.912 68.956 101.562 68.6402 101.505 68.6185C101.444 68.5952 101.501 68.7811 101.645 69.0763ZM119.337 61.4008C119.418 61.6984 119.909 62.5117 119.986 62.4745C120.022 62.4566 120.024 62.3816 119.989 62.3079C119.953 62.2342 119.932 62.1074 119.941 62.0261C119.954 61.9026 120.013 61.8963 120.297 61.9878L120.637 62.0974L120.43 61.6731C120.205 61.2114 120.031 61.1068 119.807 61.2993C119.713 61.3797 119.607 61.3834 119.476 61.3109L119.284 61.2038L119.337 61.4008ZM105.361 68.4915C106.289 69.4875 108.195 70.6568 108.389 70.3493C108.478 70.2078 108.35 70.0763 107.907 69.8532C107.667 69.7327 107.014 69.3358 106.456 68.9712C105.487 68.339 105.033 68.14 105.361 68.4915ZM104.215 69.0321C104.199 69.1928 104.776 69.6309 105.161 69.7505C105.465 69.845 105.499 69.8402 105.434 69.7117C105.34 69.526 104.462 68.8933 104.327 68.9136C104.271 68.9219 104.221 68.9753 104.215 69.0321ZM104.556 70.3116C104.998 70.7979 105.65 71.1591 105.763 70.9803C105.836 70.8642 105.371 70.414 104.968 70.2112C104.597 70.0239 104.349 70.0842 104.556 70.3116ZM124.937 61.3044C125.025 61.3348 125.207 61.6257 125.452 62.1283C126.653 64.5895 126.673 67.1398 125.541 73.8655C125.359 74.9477 125.081 76.7886 124.922 77.9563C124.602 80.3195 124.392 81.3584 123.848 83.2736C123.139 85.7678 122.44 87.4799 120.961 90.3375C119.232 93.6801 117.916 95.8025 117.038 96.6655C115.26 98.4117 113.38 98.9449 111.506 98.2347C110.158 97.7242 109.651 97.154 108.729 95.1146C108.253 94.0603 108.149 93.7566 108.039 93.0883C107.811 91.713 107.881 90.0341 108.346 85.763C108.973 79.9966 108.869 78.3612 107.777 76.792C107.59 76.5228 107.441 76.2905 107.446 76.2757C107.451 76.2609 108.266 75.7434 109.258 75.1256C114.497 71.8607 117.159 69.6328 120.726 65.5269C122.493 63.4931 123.138 62.7788 123.893 62.0191C124.55 61.3585 124.732 61.2336 124.937 61.3044ZM122.5 68.5258C121.08 70.4663 120.643 70.9941 119.719 71.8833C118.773 72.7936 117.743 73.6033 116.012 74.7961C113.83 76.2997 113.766 76.3642 115.194 75.6273C118.1 74.1276 121.664 70.9606 123.038 68.6566C123.387 68.0732 123.84 66.9653 123.745 66.9311C123.711 66.9189 123.151 67.6365 122.5 68.5258ZM125.172 67.3999C124.372 69.4273 123.682 70.4619 121.728 72.567C120.417 73.9801 119.906 74.5816 119.993 74.6117C120.089 74.6447 121.245 73.6082 122.137 72.6906C124.03 70.7422 125.529 68.3949 125.702 67.1097C125.767 66.622 125.756 66.17 125.68 66.216C125.651 66.2335 125.423 66.7663 125.172 67.3999ZM112.643 79.0765C112.423 79.2718 112.553 79.2713 113.354 79.0735C114.026 78.9076 114.036 78.902 114.533 78.4454C114.809 78.192 115.038 77.9471 115.042 77.9011C115.052 77.8019 112.88 78.8661 112.643 79.0765ZM110.988 93.6207C111.151 93.9557 111.994 94.4538 112.75 94.6624C113.468 94.8603 114.331 94.867 114.87 94.6788C115.62 94.4169 115.265 94.2808 113.856 94.2906C112.849 94.2976 112.286 94.1454 111.567 93.6719C111.253 93.4656 110.966 93.3116 110.929 93.3297C110.892 93.3478 110.919 93.4787 110.988 93.6207ZM111.438 95.1215C111.554 95.3582 111.785 95.5221 112.286 95.721C112.768 95.9121 113.238 95.8854 113.734 95.6388L114.172 95.4206L113.582 95.432C113.189 95.4397 112.713 95.3519 112.16 95.1702C111.347 94.903 111.331 94.9019 111.438 95.1215Z" fill="white"/>
</svg>
